<svg xmlns="http://www.w3.org/2000/svg" width="703.37921" height="205.61133"
    viewBox="0 0 186.10242 54.401339"
    id="visualPrison">
    <g style="stroke:none" transform="translate(-6.9696004,-20.989417)">
        <path id="path19"
            style="display:inline;opacity:1;fill:#008080;stroke:none;stroke-width:0.264583"
            d="M 169.01604,74.568575 48.431152,73.301986 48.304545,27.82931 H 16.764868 l 0.2651,-6.839893 H 183.38519 l -0.18242,9.246464 -18.36632,-0.253215 3.41995,26.219589 0.88625,9.499678 z" />
        <path style="display:inline;opacity:1;fill:#000000;stroke:none;stroke-width:0.264583"
            d="m 176.24867,75.390747 -3.36413,-2.998783 -0.39739,2.819466 -133.990275,0.174361 7.165454,-4.831441 -6.090584,-0.179317 6.090584,-3.940845 h -2.866492 l 2.507858,-3.045292 H 40.28798 l 5.015715,-3.224093 -5.73195,-1.074869 6.448702,-3.940845 -5.195032,-0.179317 4.120162,-3.761528 -7.702889,-0.358634 7.882206,-3.582727 -8.777759,-0.358118 8.419125,-4.298962 -8.061007,0.1788 8.061007,-4.478279 -9.672795,0.358634 8.597925,-4.299479 -8.419124,0.179317 8.240324,-3.761528 -10.568864,0.358118 5.195031,-2.687174 -11.823051,0.358117 -0.716235,1.254187 1.612305,0.895553 -1.433505,2.507857 1.791622,1.970423 -1.432987,1.791621 h 5.194515 l -1.07487,14.68851 9.135877,1.791105 -8.239808,3.762044 7.344255,9.493994 -31.5272746,0.716235 5.3738326,-11.285099 2.680973,-35.413342 h 2.704744 l 0.04909,5.921602 32.109668,-0.09508 -0.60203,16.846517 2.185396,-0.126608 -0.538469,13.742831 5.12992,0.411861 -4.813143,15.168066 115.613098,1.171505 -18.30276,-2.247925 18.30276,-0.950329 -17.82785,-0.728121 19.82308,-1.614889 -18.61954,-1.266589 16.87804,-1.26659 -16.65686,-1.076936 17.2899,-1.551844 -17.60616,-0.91829 c 0,0 16.97307,-1.583081 17.09973,-1.646411 0.12667,-0.06333 -16.5933,-0.696598 -16.5933,-0.696598 l 16.02331,-1.773535 -15.35824,-1.044898 15.42129,-2.184879 -13.90148,-0.221692 13.49013,-1.931665 -12.69845,-0.760161 12.72997,-1.488281 -12.06489,-1.614888 10.85153,-2.315621 h -9.13588 l 10.56887,-2.329057 c 0,0 -8.06109,-1.612305 -9.13588,-1.612305 -1.07479,0 8.24033,-1.611788 8.24033,-1.611788 l -7.52358,-1.07487 6.44871,-1.254187 -6.80682,-1.611788 6.6275,-1.791621 -5.37383,-1.253671 5.19503,-1.791622 -5.19503,-0.358117 4.65759,-1.970423 -2.86649,-1.432987 21.49585,0.1788 0.0832,-7.826912 h 2.59519 l 0.54622,14.634249 -2.32906,26.51156 1.61231,0.537435 -0.17881,4.478279 -2.86649,0.178801 -0.35811,2.149739 1.34513,1.072286 -0.0966,2.063957 -1.48828,0.587044 z"/>
        <path style="opacity:1;fill:#d4aa00;stroke:none;stroke-width:0.264583"
            d="M 19.777604 28.59257 L 22.285461 29.130005 L 16.508553 31.234786 L 22.554179 31.458545 C 22.554179 31.458545 17.404251 32.847091 17.045988 32.847091 C 16.687725 32.847091 22.554179 33.07085 22.554179 33.07085 L 16.194877 35.265548 L 22.50922 34.728113 L 16.821712 36.429818 L 23.270414 36.564177 L 17.627865 37.817847 L 21.25555 38.489641 L 17.717782 39.47511 L 22.285461 39.609469 L 18.971452 40.863139 L 23.136055 41.311174 L 17.896582 42.744161 L 24.435201 42.744161 L 18.747693 44.177149 L 23.807849 44.177149 L 18.747693 46.147571 L 24.882719 46.013213 L 20.404439 47.491159 L 25.73383 47.804318 C 25.73383 47.804318 22.161486 48.683215 20.446297 49.098812 C 23.382388 48.568991 28.554846 49.416622 28.554846 49.416622 C 28.554846 49.416622 29.450895 39.295576 29.182198 38.7134 C 28.913503 38.131224 24.255884 38.668958 24.255884 38.668958 L 26.136906 35.354948 L 24.210925 32.847091 L 25.73383 31.189828 L 24.300842 30.025558 L 25.240837 28.59257 L 19.777604 28.59257 z M 20.446297 49.098812 C 20.292109 49.126636 20.142132 49.157113 20.001363 49.192863 C 19.047998 49.434988 19.570901 49.310924 20.446297 49.098812 z M 178.77927 60.187024 L 169.82271 61.082577 L 169.91211 63.612655 L 178.80149 62.515564 L 178.77927 60.187024 z M 179.00044 62.936211 C 178.26693 62.925703 170.11365 64.06069 170.11365 64.06069 L 171.77039 65.560857 L 178.44337 64.710263 L 181.57806 66.993844 L 183.66062 66.725127 C 183.66062 66.725127 179.29429 63.030431 179.04799 62.940861 C 179.04029 62.938063 179.02411 62.93655 179.00044 62.936211 z M 175.83061 65.237879 L 172.35279 65.695215 L 172.35279 68.270252 L 176.73185 67.763306 L 175.03996 67.556084 L 176.69206 67.333358 L 174.56971 67.083761 L 176.74167 66.747864 L 175.28594 66.568547 L 176.15927 66.23265 L 174.78468 65.769629 L 175.83061 65.237879 z " />
        <path style="opacity:1;fill:#ffffff;stroke:none;stroke-width:0.264583"
            d="m 22.285461,53.357467 c -3.134801,-0.04478 -5.64255,-1.25367 -5.64255,-1.25367 0,0 3.224461,-2.329045 5.821867,-2.194698 2.597407,0.134351 5.060256,-0.134133 6.403744,0.582393 1.145594,0.610984 -2.169292,2.29573 -5.114417,2.751253 -0.01725,-0.06949 -0.04066,-0.137063 -0.07545,-0.199987 -0.02005,-0.03746 -0.03879,-0.07653 -0.0615,-0.112138 -0.02655,-0.05702 -0.05137,-0.114592 -0.0801,-0.170532 -0.05735,-0.09714 -0.126954,-0.185462 -0.216524,-0.255282 -0.02322,-0.01668 -0.04592,-0.03435 -0.06976,-0.05013 -0.06794,-0.04497 -0.141361,-0.08074 -0.214457,-0.116789 0.01754,-2.1e-4 0.03517,-1.65e-4 0.05271,-5.17e-4 0.07624,-0.0017 0.152279,-0.0043 0.228409,-0.0088 0.146502,-0.0094 0.294163,-0.01901 0.429432,-0.08216 0.03785,-0.02814 0.08731,-0.04565 0.113688,-0.08475 0.04976,-0.07376 0.08458,-0.158072 0.108003,-0.243912 0.02086,-0.07645 -0.03738,-0.212653 -0.07751,-0.280603 -0.02707,-0.04289 -0.05594,-0.0841 -0.08578,-0.125057 -1.05e-4,0.0024 5.48e-4,0.0047 0.001,0.0062 -7.23e-4,-0.0023 -0.0037,-0.0098 -0.01447,-0.02946 -0.01358,-0.02472 -0.02721,-0.04926 -0.04186,-0.07338 -0.07329,-0.106395 -0.152724,-0.179042 -0.276985,-0.223242 -0.08574,-0.02968 -0.173991,-0.05191 -0.265101,-0.05581 -0.105488,-0.0049 -0.20676,0.0064 -0.308508,0.03514 -0.109929,0.032 -0.216652,0.07335 -0.312642,0.136943 -0.06116,0.04178 -0.120593,0.0853 -0.172083,0.139009 -0.05225,0.05065 -0.104521,0.101757 -0.148311,0.160197 -0.05692,0.07848 -0.107176,0.161572 -0.134876,0.255282 -0.0052,0.0224 -0.0117,0.04449 -0.0155,0.06718 -0.01371,0.08148 -0.0075,0.16421 -10e-4,0.24598 0.0091,0.108882 0.01981,0.217567 0.03669,0.325561 0.01436,0.111217 0.02979,0.222109 0.05374,0.331763 0.02605,0.12126 0.05738,0.241209 0.100769,0.357601 0.02163,0.05546 0.04289,0.111667 0.0677,0.165881 -0.02926,-3.4e-5 -0.05938,9.31e-4 -0.08837,5.17e-4 z M 22.920048,52.3875 c 0.0065,-0.0053 0.01387,-0.0096 0.02119,-0.01395 -0.0048,0.0046 -0.0084,0.0083 -0.01499,0.01188 -0.0019,10e-4 -0.0078,0.0034 -0.0062,0.0021 z" />
        <path style="display:inline;opacity:1;fill:#800000;stroke:none;stroke-width:0.264583"
            d="m 175.89056,33.294609 v 2.687175 l -1.88103,0.448034 -0.44751,-3.045292 -3.22461,0.0894 1.6123,26.51156 4.56768,-3.403409 2.77658,-3.762045 0.53743,-19.346106 z m 0.41341,10.903211 -0.25167,2.548681 -1.31103,1.391646 -0.31264,-3.676778 z m -147.569807,13.951603 -14.061674,0.447518 7.612972,1.388545 -5.821866,0.895553 5.373832,0.448035 -5.955709,1.029911 6.761861,0.626835 -8.553483,0.895553 6.851778,1.030428 -9.090918,1.25367 22.839433,-0.940511 z m 149.977927,9.739974 -8.17315,1.254187 0.045,2.26136 6.22495,-1.231449 -0.80616,1.187008 -0.67179,-0.470256 -0.4253,0.940511 -0.89555,-0.380855 0.31316,1.00769 -1.05213,-0.559655 2.5523,2.574519 2.88871,-2.933154 2.64221,1.432988 1.14205,-0.470256 c 0,0 -3.67264,-2.283761 -3.67264,-2.395719 0,-0.111957 0.0227,-1.545126 0.0227,-1.545126 l 3.53777,2.709396 0.0672,-0.671794 z" />
    </g>
</svg>