<svg xmlns="http://www.w3.org/2000/svg" viewBox="0 0 294.90053 59.127047" id="rocks">
        <path style="display:inline;opacity:1;fill:#000000;stroke-width:0.264585" d="M 270.6111,34.570969 256.07385,21.96587 c 0,0 -5.88852,-3.128273 -15.64137,-1.564136 -9.75285,1.564136 -11.77702,13.709195 -11.77702,13.709195 l -4.23304,-2.828202 -1.1961,-8.464739 c 0,0 -3.68032,-4.324377 -9.75285,-1.012088 -6.07253,3.312287 -2.3002,9.108794 -2.3002,9.108794 l 3.77233,2.944256 -2.2082,3.128273 c 0,0 -7.45264,-6.348554 -7.63666,-8.740763 -0.18402,-2.392208 0.82807,-6.348553 0.82807,-6.348553 0,0 0.36803,-7.728674 -5.98052,-5.612488 -6.34855,2.116185 -5.88851,9.660842 -5.88851,9.660842 l -2.94426,-1.564136 c 0,0 3.68032,-4.600401 1.47213,-9.200804 -2.20819,-4.6004 -8.28072,-4.324374 -8.28072,-4.324374 0,0 -9.29281,5.704495 -4.87643,10.948953 4.41639,5.244456 -7.36064,-5.152449 -10.02887,7.91269 -2.66823,13.065138 3.12827,-5.152449 -5.79651,-2.484218 -8.92477,2.668234 -5.06044,5.980522 -5.06044,5.980522 l -1.1961,-1.288112 0.64405,-4.784416 -2.94425,-2.300202 -3.49631,-0.276023 c 0,0 -3.31229,2.208192 -3.4963,2.944257 -0.18402,0.736062 -1.65615,3.496303 -1.65615,3.496303 h -1.93217 l -3.58831,0.736065 -0.55205,-3.404296 c 0,0 -0.27602,-2.392209 -0.55204,-2.944257 -0.27603,-0.552049 -1.38012,-3.31229 -1.38012,-3.31229 l -2.94426,-2.76024 c 0,0 -2.76024,-0.828072 -3.12827,-0.920079 -0.36804,-0.09201 -4.69241,-0.09201 -4.69241,-0.09201 0,0 -2.3002,2.668234 -2.48422,3.128273 -0.18401,0.460039 -2.3002,3.036264 -2.48422,4.140361 -0.18401,1.104095 -0.92007,4.140361 -1.01208,4.692407 -0.092,0.552049 0.36803,2.85225 0.36803,2.85225 l -3.4043,-1.196104 c 0,0 -1.1961,0.644056 -2.3002,0.828072 -1.10409,0.184016 -3.31229,0.736064 -3.31229,0.736064 l -2.3922,3.128273 -8.92478,-10.120884 -14.353251,-1.38012 0.184016,-2.668231 0.276026,-2.944257 c 0,0 0.09201,-1.932169 -0.276026,-2.484215 -0.368032,-0.552049 -0.736062,-1.104098 -1.288111,-1.47213 -0.552048,-0.368033 -2.484217,-1.288111 -2.484217,-1.288111 l -3.128271,0.644055 c 0,0 -2.392211,1.012088 -2.576224,1.380121 -0.184017,0.368032 -1.012091,1.38012 -1.47213,2.024176 -0.46004,0.644055 -1.748153,2.024175 -1.748153,2.024175 l -1.564137,0.276026 -0.736062,-1.656146 v -3.404296 l 0.460039,-2.576225 -0.828071,-1.656143 -2.024176,-1.5641367 c 0,0 -2.576225,-0.276023 -2.944257,-0.09201 -0.368033,0.184014 -5.244459,2.0241757 -5.428475,2.5762247 -0.184014,0.552046 -0.736062,3.128271 -0.736062,3.128271 l -3.036267,-3.864336 c 0,0 -2.300199,-1.9321687 -2.944254,-1.9321687 -0.644058,0 -3.128273,-0.368032 -3.864338,-0.368032 -0.736065,0 -3.404297,-0.276023 -4.692408,-0.368033 -1.288113,-0.09201 -5.704497,0.644058 -6.440562,1.104097 -0.736065,0.4600397 -4.232368,3.0362637 -5.244456,4.5083937 -1.012088,1.472127 -1.564137,3.036264 -3.404299,4.968433 -1.84016,1.932166 -4.508391,3.864335 -5.06044,4.508391 -0.552048,0.644058 -3.680321,5.152449 -3.956344,5.612491 -0.276025,0.460039 -2.116185,2.852248 -2.668233,3.22028 -0.552048,0.368032 -1.840161,0.92008 -1.840161,0.92008 L 17.22037,34.31899 -9.1547676e-4,59.031036 283.32675,59.123766 l 11.57469,-0.0012 z" id="path3"/>
        <g style="opacity:1" transform="translate(-0.26033641,-0.03410666)" />
        <g transform="translate(-0.26033641,-0.03410666)">
            <path style="opacity:0.467236;fill:#000000;stroke-width:0.264585" d="M 213.45779,20.275871 Z" id="path1" />
            <path style="opacity:1;fill:#000000;stroke-width:0.264585"
                d="m 107.54253,24.908908 0.065,-3.057796 1.75661,-2.992737 1.17107,-0.650593 h 1.56143 1.23613 l 0.58554,0.650593 0.58553,1.106013 1.23613,0.715655 1.17107,0.845772 0.91084,1.30119 0.26023,1.626488 -0.84577,2.212021 -1.17107,1.236131 c 0,0 -0.97589,0.845775 -1.49637,0.975892 -0.52048,0.130121 -1.69155,0.390358 -2.0819,0.3253 -0.39036,-0.06506 -1.30119,-0.780717 -1.56143,-0.975893 -0.26024,-0.195179 -2.01684,-1.106013 -2.08191,-1.366251 -0.065,-0.260238 -1.30118,-1.951785 -1.30118,-1.951785 z"
                id="path4" />
            <path style="opacity:1;fill:#000000;stroke-width:0.264585"
                d="m 164.33946,22.306529 -1.17107,-2.081903 c 0,0 -0.13012,-0.13012 -0.0651,-0.650596 0.0651,-0.520476 0.3253,-2.277082 0.3253,-2.277082 0,0 0.26024,-0.520476 0.3253,-0.845773 0.0651,-0.325296 0.58553,-1.301189 0.58553,-1.301189 l 2.27708,-1.301192 1.43131,0.910834 0.71566,0.520476 1.36625,1.301189 c 0,0 1.04095,1.756606 1.04095,2.146964 0,0.390356 0,1.561428 0,1.561428 0,0 -0.26024,1.040951 -0.58554,1.171071 -0.32529,0.130118 -1.69154,0.910832 -1.69154,0.910832 0,0 -1.17107,0.390358 -2.08191,0.390358 -0.91083,0 -2.14696,0 -2.14696,0 z"
                id="path5" />
            <path style="opacity:1;fill:#000000;stroke-width:0.264585"
                d="m 201.45074,9.1889037 -2.94426,-2.208192 c 0,0 0.50605,-2.254195 0.55205,-2.438212 0.046,-0.184016 0.023,-2.369208 0.092,-2.461214 0.069,-0.09201 1.35712,-1.012088 1.44912,-1.081095 0.092,-0.06901 2.30021,-0.73606504 2.41521,-0.80507104 0.11501,-0.06901 2.66824,-0.161013 2.66824,-0.161013 0,0 1.81716,1.74815304 1.84016,2.09318204 0.023,0.345029 0.18401,1.334117 -0.046,2.300199 -0.23003,0.966084 -1.12711,3.243283 -1.19611,3.404299 -0.069,0.161013 -0.78207,1.334114 -1.01209,1.38012 -0.23002,0.046 -1.58714,0.276023 -1.74815,0.276023 -0.16102,0 -2.07018,-0.299026 -2.07018,-0.299026 z"
                id="path6" />
            <path id="path8" style="opacity:1;fill:#0b8080;fill-opacity:1;stroke-width:0.264585"
                d="M 114.272,59.160638 H 78.057448 l -0.37724,-1.006146 1.04077,-9.368996 3.383277,4.944949 0.911062,-6.245653 4.293821,6.766038 -0.260451,-10.01909 4.293822,14.312911 1.301221,-14.833296 4.294338,10.929634 1.561155,-9.498704 4.033887,7.156713 3.25305,-11.58076 5.59505,5.074657 -1.56168,5.074657 4.29383,5.595043 z" />
            <path id="path9" style="display:inline;opacity:1;fill:#0b8080;fill-opacity:1;stroke-width:0.264585"
                d="m 225.60027,59.160121 -108.33463,5.17e-4 0.10077,-3.218428 2.21228,-5.595043 3.38276,5.335109 0.26045,-6.115944 3.38328,3.643211 0.65061,-6.896263 4.94443,6.506103 2.34199,-7.546873 2.86238,9.759155 3.38327,-7.677098 4.81473,5.334591 1.8216,-4.944432 0.39016,6.636329 4.55427,-7.026488 3.38277,4.944431 1.30122,-5.725267 2.08205,4.033887 1.95183,-5.335108 1.43145,7.416648 2.73215,-7.546873 2.99312,5.855493 1.43093,-7.416648 4.55427,9.238253 1.04129,-9.758638 2.73215,6.505587 2.47221,-11.840695 2.34251,11.840695 3.12283,-14.963522 4.42404,17.306029 5.59505,-9.889381 5.59504,10.01909 1.04077,-12.621531 3.25305,8.58816 0.65061,5.334591 2.34199,-10.149314 2.73267,8.067775 1.69138,-4.164113 3.12282,4.814723 c 0,0 2.73278,-6.766464 2.8629,-7.286939 0.13011,-0.520476 3.25305,5.335108 3.25305,5.335108 l 1.43145,-5.074657 3.38276,5.464816 c 0,0 2.47236,2.73276 0.13022,6.636329 -0.31973,0.53289 -0.98037,1.289335 -1.84693,2.176625 z" />
            <path id="path11" style="opacity:1;fill:#0b8080;fill-opacity:1;stroke-width:0.264585"
                d="m 292.15156,59.153443 -8.66298,0.0067 H 234.04994 C 233.8456,57.83895 233.4324,55.128052 233.4324,54.510764 v -4.033371 l 0.65061,-3.383277 0.39068,-2.602442 1.30122,-2.862375 4.81421,9.758638 1.43144,-15.744357 c 0,0 5.3347,12.231447 5.46482,11.060376 0.13012,-1.171071 0.13023,-11.710986 0.13023,-11.710986 l 6.76603,10.930151 -0.78032,-10.279541 4.81421,3.903662 -1.17099,-7.807324 20.42833,14.703587 z"/>
            <path style="opacity:1;fill:#0b8080;fill-opacity:1;stroke-width:0.264585"
                d="m 62.423767,18.012603 1.2036,-3.252975 1.659017,-2.081903 2.602381,-0.585537 c 0,0 1.886724,0.357827 2.016844,0.390358 0.130118,0.03253 2.016844,1.10601 2.049375,1.23613 0.03253,0.130118 0.06506,2.699969 0.06506,2.960206 0,0.260238 -0.22771,2.439731 -0.292769,2.830089 -0.06506,0.390358 -1.984313,2.53732 -2.114433,2.602379 -0.130118,0.06506 -1.593958,0.162648 -1.886724,0.195179 -0.292769,0.03253 -2.699971,-0.09759 -2.960209,-0.227707 -0.260238,-0.130121 -2.146962,-1.821668 -2.179493,-2.179493 -0.03253,-0.357827 -0.162648,-1.886726 -0.162649,-1.886726 z"
                id="path13" />
            <path style="opacity:1;fill:#0b8080;fill-opacity:1;stroke-width:0.264585"
                d="m 77.45251,24.77879 -0.09759,-2.569851 0.03253,-2.374671 2.309611,-2.797558 2.927678,-0.520476 c 0,0 1.821665,0.878303 2.016844,1.561427 0.195179,0.683124 0.910834,2.016845 0.910834,2.277082 0,0.260238 0.292766,1.56143 0.292766,2.244554 0,0.683125 0.13012,3.318034 -0.195177,4.001158 -0.325299,0.683124 -1.073482,1.138541 -1.46384,1.366251 -0.390355,0.227707 -4.261396,0.162648 -4.261396,0.162648 0,0 -0.975892,-0.910834 -1.040951,-1.040951 -0.06506,-0.13012 -0.943365,-0.910834 -1.008424,-1.236131 -0.06506,-0.325299 -0.422886,-1.073482 -0.422886,-1.073482 z"
                id="path14" />
            <path style="opacity:1;fill:#0b8080;fill-opacity:1;stroke-width:0.264585"
                d="m 80.965723,37.530451 0.618065,-2.374672 c 0,0 2.212024,-3.025267 2.4072,-3.252974 0.195179,-0.22771 2.699971,-1.171072 2.699971,-1.171072 0,0 2.4072,-0.845772 2.602379,-0.845772 0.195179,0 2.277082,1.040951 2.277082,1.366248 0,0.325299 0.09759,1.756607 0,2.016845 -0.09759,0.260238 -2.049375,1.366249 -2.569851,1.561428 -0.520476,0.195178 -2.53732,0.487946 -2.830086,0.618065 -0.292768,0.130119 -1.23613,0.455416 -1.593958,1.008422 -0.357827,0.553006 -0.748185,1.431309 -1.008423,1.659017 -0.260238,0.227708 -0.943362,0.455417 -1.236131,0.455417 -0.292766,0 -0.325297,0.130119 -0.618065,0 -0.292766,-0.130119 -0.943362,-0.487947 -0.97589,-0.910833 -0.03253,-0.422887 0.227707,-0.130119 0.227707,-0.130119 z"
                id="path15" />
            <path style="opacity:1;fill:#0b8080;fill-opacity:1;stroke-width:0.264585"
                d="m 111.08827,27.4137 -2.30961,-1.2036 c 0,0 -0.61807,-1.691548 -0.61807,-1.854196 0,-0.162649 1.04095,-1.203603 1.04095,-1.203603 l 0.68313,-1.10601 c 0,0 0.71565,-0.553006 0.94336,-0.553006 0.22771,0 0.48795,0.03253 1.13854,0.06506 0.6506,0.03253 2.89515,0.09759 3.09033,0.553004 0.19517,0.455417 0.0651,1.626489 0.48794,1.886726 0.42289,0.260238 1.13854,0.357828 1.17108,0.618066 0.0325,0.260238 0.16264,0.650593 -0.0976,1.2036 -0.26024,0.553006 -0.91084,1.106013 -1.10602,1.431309 -0.19517,0.325297 -0.29276,0.715655 -0.61806,1.040952 -0.3253,0.325296 -0.58554,0.455417 -0.91083,0.455417 -0.3253,0 -0.87831,0 -1.2036,0 -0.3253,0 -0.81325,0.130117 -1.00843,-0.09759 -0.19518,-0.22771 -0.35782,-0.618065 -0.45541,-0.845775 -0.0976,-0.227707 -0.22771,-0.390355 -0.22771,-0.390355 z"
                id="path16" />
            <path style="opacity:1;fill:#0b8080;fill-opacity:1;stroke-width:0.264585"
                d="m 125.69413,35.155779 -0.3253,-0.878303 c 0,0 -0.3253,-3.057795 -0.3253,-3.285505 0,-0.227707 -0.0325,-1.138541 0.0325,-1.43131 0.0651,-0.292766 0.553,-2.21202 0.78071,-2.667437 0.22771,-0.455417 0.87831,-1.073482 0.87831,-1.073482 0,0 0.26024,0.715654 1.4313,-0.585535 1.17108,-1.301189 1.3012,-1.43131 1.3012,-1.43131 0,0 -0.19518,-0.487945 1.10601,-0.292768 1.30119,0.195179 3.05779,1.073482 3.2855,1.171071 0.22771,0.09759 1.49637,1.366251 1.65902,1.5289 0.16265,0.162648 1.91925,1.00842 2.14696,1.561427 0.22771,0.553006 1.04095,2.277082 1.2036,3.74092 0.16265,1.463839 0.42289,2.439732 0.26024,3.448154 -0.16265,1.008422 -0.22771,1.821666 -0.68313,2.374671 -0.45541,0.553006 -1.69154,0.878303 -2.66743,1.236131 -0.9759,0.357827 -1.88673,0.683124 -3.12286,0.715654 -1.23613,0.03253 -1.75661,0.227708 -2.34214,0.03253 -0.58554,-0.195179 -1.72408,-0.683125 -2.14697,-1.073482 -0.42288,-0.390357 -0.97589,-0.650595 -1.23613,-1.26866 -0.26023,-0.618065 -0.71565,-1.33372 -0.71565,-1.33372 z"
                id="path17" />
            <path style="opacity:1;fill:#0b8080;fill-opacity:1;stroke-width:0.264585"
                d="m 145.40715,41.856907 c 0,0 -3.90357,-3.155385 -4.00116,-3.383094 -0.0976,-0.227708 -0.42289,-1.333719 -0.553,-1.528898 -0.13012,-0.195178 -1.10602,-0.292768 -0.81325,-1.138541 0.29277,-0.845773 1.46384,-1.333719 1.56143,-1.463839 0.0976,-0.130119 1.04095,-0.618065 1.04095,-0.618065 0,0 0.19518,-0.845773 0.52048,-1.171072 0.3253,-0.325296 0.94336,-0.06506 1.30119,-0.06506 0.35783,0 1.39878,0.03253 1.39878,0.03253 0,0 0.71565,0.422886 1.33372,1.073481 0.61806,0.650595 0.97589,0.813244 1.72407,1.171071 0.74819,0.357827 1.00843,0.683125 1.62649,0.748184 0.61807,0.06506 1.36625,0 1.49637,0.455417 0.13012,0.455416 1.04095,0.910833 0.19518,2.049374 -0.84578,1.138541 -1.95179,1.496368 -2.66744,2.212023 -0.71566,0.715654 -0.68313,1.431309 -1.2036,1.756606 -0.52048,0.325297 -1.00842,0.455416 -1.56143,0.422887 -0.55301,-0.03253 -1.39878,-0.585536 -1.39878,-0.553006 z"
                id="path18" />
            <path style="opacity:1;fill:#0b8080;fill-opacity:1;stroke-width:0.264585"
                d="m 152.01069,34.407595 c 0,0 -1.91925,-0.260238 -2.04937,-0.357827 -0.13012,-0.09759 -0.78072,-0.227708 -0.94337,-0.520476 -0.16265,-0.292768 -0.48794,-1.496369 -0.48794,-1.756607 0,-0.260238 0,-0.292766 0,-0.878304 0,-0.585534 -0.0976,-0.780713 0.0976,-1.23613 0.19517,-0.455414 0.78071,-1.301189 1.00842,-1.691545 0.22771,-0.390358 0.84577,-0.683127 0.94336,-0.813244 0.0976,-0.130121 0.29277,-0.195179 0.81324,-0.292769 0.52048,-0.09759 2.1795,-0.292766 2.1795,-0.292766 0,0 0.97589,0.487945 1.13854,0.553004 0.16265,0.06506 1.04095,0.390358 1.23613,0.943365 0.19518,0.553003 0.48794,0.748182 0.48794,1.756606 0,1.008421 0.0976,2.016844 0.16266,2.797558 0.0651,0.780713 0.68312,1.13854 0.26023,1.659016 -0.42289,0.520476 -1.39878,0.878303 -1.56143,0.878303 -0.16265,0 -1.7566,-0.292768 -1.88672,-0.325297 -0.13012,-0.03253 -0.81325,0 -0.81325,0 z"
                id="path19" />
            <path style="opacity:1;fill:#0b8080;fill-opacity:1;stroke-width:0.264585"
                d="m 160.9889,33.82206 -1.00842,-1.333721 0.0651,-1.984313 c 0,0 0.16264,-0.195179 0.71565,-0.357827 0.55301,-0.162649 2.04938,-0.292769 2.4072,-0.455417 0.35783,-0.162649 1.49637,-0.292769 1.65902,-0.292769 0.16265,0 1.10601,0.260238 1.49637,0.260238 0.39035,0 1.26866,0.09759 1.36625,0.553006 0.0976,0.455417 0.8783,1.561428 0.58553,2.309613 -0.29276,0.748184 -0.39035,1.106011 -1.13854,1.691546 -0.74818,0.585536 -4.32645,1.203601 -4.84693,1.236131 -0.52048,0.03253 -0.78071,0.325297 -0.78071,-0.130119 0,-0.455417 -0.52048,-1.496368 -0.52048,-1.496368 z"
                id="path20" />
            <path style="opacity:1;fill:#0b8080;fill-opacity:1;stroke-width:0.264585"
                d="m 166.25872,22.371588 c 0,0 -0.48795,0.06506 -0.74819,0 -0.26023,-0.06506 -0.52047,0.357827 -0.65059,-0.130118 -0.13012,-0.487948 -0.26024,-1.691547 -0.3253,-1.821665 -0.0651,-0.13012 -0.39035,-0.943365 -0.48794,-1.073482 -0.0976,-0.130121 -0.3253,-0.06506 -0.0325,-1.106013 0.29276,-1.040952 0.26023,-1.593956 0.58553,-1.821665 0.3253,-0.227708 0.91083,-0.357828 0.91083,-0.357828 0,0 0.52048,0.195179 0.9759,0.195179 0.45541,0 0.553,0.260238 0.94336,0.357828 0.39036,0.09759 1.88673,0.650596 2.04937,0.813244 0.16265,0.162648 0.68313,0.650593 0.91084,1.07348 0.22771,0.422888 0.65059,1.268661 0.48794,1.659019 -0.16265,0.390356 -0.0976,0.585535 -0.42288,0.97589 -0.3253,0.390358 -0.42289,0.487948 -0.71566,0.553007 -0.29277,0.06506 -0.78071,0.09759 -1.00842,0.195179 -0.22771,0.09759 -0.97589,0.455417 -0.97589,0.455417 0,0 -0.91084,0.06506 -1.04096,0.06506 -0.13011,0 -0.45541,-0.03253 -0.45541,-0.03253 z"
                id="path21" />
            <path style="opacity:1;fill:#0b8080;fill-opacity:1;stroke-width:0.264585"
                d="m 182.84889,23.184832 c 0,0 -1.36625,-0.780714 -1.36625,-1.073482 0,-0.292766 -0.45542,-1.171069 -0.45542,-1.789135 0,-0.618065 0.0325,-2.277082 0.35783,-3.610802 0.3253,-1.33372 0.8783,-1.886726 1.56143,-2.342141 0.68312,-0.455417 1.10601,-0.618065 1.91925,-0.715655 0.81325,-0.09759 2.27709,0.162649 2.7325,0.487945 0.45542,0.325297 1.39878,1.008424 1.59396,1.106011 0.19518,0.09759 1.23613,0.585537 1.43131,0.845775 0.19518,0.260238 0.78071,0.227707 0.84577,1.138541 0.0651,0.910834 0.68313,1.138541 0.39036,2.699968 -0.29277,1.561428 -0.71566,2.342141 -1.23613,2.927678 -0.52048,0.585535 -0.97589,1.040952 -1.88673,1.236131 -0.91083,0.195179 -4.00116,0.422886 -4.1638,0.325297 -0.16265,-0.09759 -0.16265,-0.130118 -0.29277,-0.260238 -0.13012,-0.130121 -1.43131,-0.975893 -1.43131,-0.975893 z"
                id="path22" />
            <path style="opacity:1;fill:#0b8080;fill-opacity:1;stroke-width:0.264585"
                d="m 195.47043,33.334113 c -0.16265,0 -1.82166,0.780714 -1.78914,-0.487946 0.0325,-1.268659 0.0976,-3.187916 0.26024,-3.578272 0.16265,-0.390358 1.59396,-2.016844 2.11444,-1.886726 0.52047,0.13012 2.86262,0.09759 3.18791,0.650596 0.3253,0.553006 2.14696,1.659017 2.01685,3.057796 -0.13012,1.398778 -0.68313,2.374671 -1.23613,2.699969 -0.55301,0.325297 -1.5289,0.585535 -1.8542,0.585535 -0.3253,0 -1.98431,-0.130119 -1.98431,-0.130119 z"
                id="path23" />
            <path style="opacity:1;fill:#0b8080;fill-opacity:1;stroke-width:0.264585"
                d="m 195.53549,26.307689 c 0,0 0.55301,-1.496368 0.74819,-2.179495 0.19517,-0.683124 1.59395,-3.838509 1.7566,-4.196337 0.16265,-0.357827 -0.0976,-0.325296 0.61807,-0.910831 0.71565,-0.585537 2.11443,-0.683127 2.37467,-0.650596 0.26024,0.03253 1.75661,0.683124 1.91925,0.975893 0.16265,0.292766 0.91084,0.683124 0.9759,1.528896 0.0651,0.845775 0.2277,1.919258 0.13011,3.318036 -0.0976,1.398779 0.0651,2.569849 -0.29276,3.415624 -0.35783,0.845772 -0.87831,1.496368 -0.87831,1.496368 0,0 -0.58553,0.195176 -0.71565,0.195176 -0.13012,0 -0.35783,0.422889 -0.84577,-0.130117 -0.48795,-0.553007 -1.2036,-1.171072 -1.49637,-1.398779 -0.29277,-0.22771 -0.84578,-0.715655 -1.17107,-0.910834 -0.3253,-0.195179 -1.10602,-0.455417 -1.39878,-0.455417 -0.29277,0 -1.07348,0.03253 -1.07348,0.03253 z"
                id="path24" />
            <path style="opacity:1;fill:#0b8080;fill-opacity:1;stroke-width:0.264585"
                d="m 216.54971,33.626881 c 0,0 -1.91926,-1.496369 -2.01685,-1.724076 -0.0976,-0.22771 -1.00842,-0.748186 -1.2036,-1.268661 -0.19518,-0.520476 -0.68312,-1.528897 -0.29276,-2.439731 0.39035,-0.910834 1.78913,-1.691547 1.98431,-1.789137 0.19518,-0.09759 1.69155,-0.97589 2.17949,-1.301189 0.48795,-0.325297 2.4072,-0.585535 2.4072,-0.585535 0,0 0.94337,-0.422886 1.07349,-0.422886 0.13011,0 0.68312,0.292766 0.81324,1.040951 0.13012,0.748183 0.71565,1.528897 0.97589,2.53732 0.26024,1.008421 1.30119,1.724076 0.13012,2.667441 -1.17107,0.943362 -2.27708,1.268658 -2.66744,1.691545 -0.39036,0.422888 -0.58553,1.171071 -1.2036,1.36625 -0.61806,0.195178 -1.43131,0.357827 -1.75661,0.325297 -0.32529,-0.03253 -0.42288,-0.09759 -0.42288,-0.09759 z"
                id="path25" />
            <path style="opacity:0.920228;fill:#0b8080;fill-opacity:1;stroke-width:0.264585"
                d="m 232.77947,38.677474 c 0,0 -0.92008,-0.46004 -1.19611,-1.196104 -0.27602,-0.736064 -0.82807,-2.116185 -0.73606,-2.944257 0.092,-0.828072 0.27603,-1.196104 1.01209,-2.484217 0.73606,-1.288111 2.85225,-2.116183 2.85225,-2.116183 0,0 0.73606,-1.564136 1.56413,-2.668234 0.82808,-1.104094 2.94426,-1.288111 2.94426,-1.288111 0,0 1.28811,0.644056 0.82807,2.576225 -0.46004,1.932166 -1.84016,4.048352 -2.57622,4.876424 -0.73607,0.828072 -1.56414,1.012088 -2.02418,2.116184 -0.46004,1.104097 -1.01209,2.668233 -1.01209,2.668233 z"
                id="path26" />
            <path style="opacity:1;fill:#0b8080;fill-opacity:1;stroke-width:0.264585"
                d="m 201.77277,8.1308127 -0.92008,-0.184016 c 0,0 -0.64406,-1.196105 -0.64406,-1.656146 0,-0.46004 0,-1.288111 0,-1.84016 0,-0.552049 -0.46004,-0.460039 0.27602,-1.104095 0.73607,-0.644058 2.39221,-1.288113 2.39221,-1.288113 0,0 0.64406,0.09201 1.19611,-0.09201 0.55204,-0.184016 1.38012,0 1.56413,0.460039 0.18402,0.460039 0.64406,1.472127 0.64406,2.116185 0,0.644056 -0.46004,2.116183 -0.55205,2.668232 -0.092,0.552048 -0.27602,1.472127 -0.27602,1.472127 0,0 -1.47213,0.276026 -1.84016,0.276026 -0.36804,0 -1.84016,-0.828072 -1.84016,-0.828072 z"
                id="path27" />
            <path id="path7" style="display:inline;opacity:1;fill:#0b8080;fill-opacity:1;stroke-width:0.264585"
                d="m 72.109971,59.160638 -57.010315,5.17e-4 0.123507,-0.616504 17.956123,-29.146724 0.260451,8.197484 3.643211,-8.97832 -0.259934,13.012208 8.717869,-14.964039 -0.780836,18.99741 4.944432,-14.182686 1.561672,14.573362 7.677099,-16.004808 -0.390677,19.517794 4.944432,-16.654902 4.164114,11.190085 2.862375,-6.506104 1.301221,19.778245 0.260451,1.431446 z" />
        </g>
    </svg>