<svg xmlns="http://www.w3.org/2000/svg" data-x="0" id="visualBoat" viewBox="0 0 134.72517 70.271064" data-y="0">

            <g transform="translate(-0.84081868,-0.06620812)">
                <path id="path1" style="opacity:1;fill:#000000;stroke-width:0.264583"
                    d="M 73.257022,0.06661758 C 41.456001,-0.03729242 4.4292533,16.208889 4.4292533,16.208889 L 4.6132226,25.961845 1.5312203,27.24963 0.84081868,43.627031 3.9693301,45.237279 3.555916,53.922593 v 5.17e-4 c 1.63e-4,7.1e-4 3.898e-4,0.0011 5.168e-4,0.0021 5.2e-4,0.003 0.00103,0.007 0.00103,0.01034 2.43e-4,0.003 -2.708e-4,0.0058 -5.168e-4,0.0088 -2e-4,0.002 -0.00103,0.0042 -0.00103,0.0062 -3.95e-4,0.002 -0.00117,0.0037 -0.00207,0.0047 -4.43e-4,3.8e-4 -0.00157,-9.66e-4 -0.00207,0.0021 3.5e-5,0.001 -4.3e-5,0.0021 0,0.0031 1.76e-4,0.004 4.628e-4,0.008 5.168e-4,0.0124 3.4e-5,0.003 -8e-6,0.0063 0,0.0093 6e-6,0.004 -1e-6,0.0068 0,0.0098 v 10e-4 C 29.201736,64.540217 57.415159,73.11078 75.545269,69.49642 116.01201,61.42909 135.52959,34.233745 135.52959,34.233745 l 0.009,0.0088 c 0.004,-0.008 0.009,-0.01671 0.0134,-0.02481 0.001,-0.003 0.003,-0.0048 0.004,-0.0078 0.003,-0.006 0.006,-0.01142 0.01,-0.01602 C 118.50912,18.160303 98.453622,2.6293569 82.911792,0.65986686 c -3.13113,-0.39678 -6.36502,-0.58250928 -9.65477,-0.59324928 z M 3.1636893,53.826474 c -1.27e-4,2.5e-4 1.32e-4,0.001 0,0.001 0.0022,9.3e-4 0.00452,0.0021 0.00672,0.0031 -0.0022,-10e-4 -0.00452,-0.0021 -0.00672,-0.0041 z m 0.3622542,0.126092 c 0.0024,0.001 0.00442,0.0011 0.00672,0.0021 7.68e-4,2.2e-4 0.00168,2.77e-4 0.00258,5.17e-4 v -5.17e-4 c -0.0027,-2e-4 -0.006,-0.0011 -0.0093,-0.0021 z" />
                <path style="opacity:0.988604;fill:#a02c2c;stroke-width:0.264583"
                    d="m 12.515653,47.675822 1.028986,-23.76026 9.26089,-3.55468 -0.654809,31.2438 z" id="path30" />
                <path style="opacity:1;fill:#a02c2c;stroke-width:0.264583"
                    d="m 43.75946,13.999862 0.374176,42.74976 3.648229,1.59026 -0.46772,-46.30445 z" id="path32" />
                <path id="path33" style="opacity:1;fill:#a02c2c;stroke-width:0.264583"
                    d="m 82.393327,12.503352 0.0935,18.05368 28.624603,4.77077 -28.531063,8.23206 0.0935,15.24764 c 0,0 31.150543,-12.535 40.879153,-23.57323 0.86507,-0.98152 0.93978,-1.07746 1.53789,-1.7601 -0.0346,-0.0237 -0.0672,-0.0496 -0.10025,-0.0754 -0.0237,-0.0195 -0.0474,-0.0393 -0.0692,-0.061 -0.19042,-0.14676 -20.18453,-15.52777 -42.528143,-20.83439 z m 45.878843,17.28835 c -0.002,-3.3e-4 -0.0476,0.0478 -0.0775,0.0786 0.003,1.5e-4 0.006,0.002 0.01,0.002 0.017,-0.0206 0.0694,-0.0805 0.0682,-0.0806 z m -0.73122,0.7581 c -0.0591,0.0635 -0.0971,0.10558 -0.16019,0.17363 0.0242,-0.0215 0.0473,-0.0442 0.0682,-0.0692 0.0305,-0.0349 0.0613,-0.0697 0.092,-0.10438 z m -1.96887,2.22725 c -0.006,0.008 -0.0117,0.0148 -0.0176,0.0222 0.001,-7.5e-4 0.003,-0.001 0.004,-0.002 0.006,-0.003 0.0116,-0.008 0.0176,-0.0114 -0.001,-0.003 -0.003,-0.006 -0.004,-0.009 z m -0.53123,0.49403 -5.2e-4,5.1e-4 c -3.3e-4,3.7e-4 -0.008,0.009 -0.008,0.009 0.003,0.002 0.006,0.005 0.009,0.007 -4.4e-4,-0.005 -6.1e-4,-0.011 -5.1e-4,-0.0165 z m 0.14934,0.0599 -5.2e-4,5.2e-4 c -0.003,0.003 -0.007,0.004 -0.0103,0.007 0.002,0.002 0.004,0.005 0.006,0.007 10e-4,-0.003 0.003,-0.007 0.004,-0.0103 4.2e-4,-0.001 7.4e-4,-0.003 0.001,-0.004 z m 0.0103,0.0181 c -0.003,4.5e-4 -0.005,10e-4 -0.008,0.002 9e-4,8.4e-4 0.002,0.002 0.004,0.002 0.002,0 -2e-4,-0.002 0,-0.002 0.001,-6.8e-4 0.002,-8.2e-4 0.004,-10e-4 l 5.1e-4,-5.1e-4 z" />
                <path style="opacity:1;fill:#d4aa00;stroke-width:0.264583"
                    d="m 62.507717,55.760142 c 0,-0.33073 0.59531,-46.6989595 0.59531,-46.6989595 l 10.78177,-0.59531 1.05834,50.9984395 c 0,0 -2.05052,-14.02292 -2.05052,-13.36146 0,0.66146 -2.31511,14.2875 -2.31511,14.2875 l -0.79375,-13.22917 -1.52135,11.9724 -0.8599,-12.63385 -1.45521,14.22135 -1.25677,-15.80885 -1.71979,15.61041 z"
                    id="path41" />
                <path style="display:inline;opacity:1;fill:#3b1d62;fill-opacity:1;stroke-width:0.264583"
                    d="m 53.11501,11.376292 c 5.027087,-1.4552095 6.945317,-1.7197895 6.945317,-1.7197895 l -5.225525,5.9531195 4.630205,3.175 -4.431768,4.63021 4.233338,3.83646 -4.431775,4.16719 3.902605,4.10104 -3.770314,4.23333 4.101044,3.77031 -4.431773,4.0349 3.638023,4.16719 -3.968752,2.91041 4.431772,4.10104 -5.688543,0.33073 z"
                    id="path42" />
                <path style="opacity:1;fill:#3a1768;fill-opacity:1;stroke-width:0.264583"
                    d="m 37.769177,15.146602 -7.011458,2.11667 -0.79375,38.16614 5.953125,2.64584 -3.042709,-6.01927 4.7625,-2.71198 -5.093229,-2.38125 5.357812,-3.43959 -4.365624,-4.03489 4.233333,-3.24115 -5.291667,-4.49792 5.55625,-4.43177 -4.497916,-2.91041 4.299479,-2.51354 -3.638021,-3.43959 z"
                    id="path43" />
            </g>
</svg>